<svg width="29" height="30" viewBox="0 0 29 30" fill="none" xmlns="http://www.w3.org/2000/svg">
<path d="M14.1251 18.75L12.7993 20.0758L14.1251 21.4016L15.451 20.0758L14.1251 18.75ZM16.0001 1.875C16.0001 0.839475 15.1607 0 14.1251 0C13.0896 0 12.2501 0.839456 12.2501 1.875H16.0001ZM3.42432 10.7008L12.7993 20.0758L15.451 17.4242L6.07598 8.04917L3.42432 10.7008ZM15.451 20.0758L24.826 10.7008L22.1743 8.04917L12.7993 17.4242L15.451 20.0758ZM16.0001 18.75V1.875H12.2501V18.75H16.0001Z" fill="#888888"/>
<path d="M1 22.5V24.375C1 26.4461 2.67893 28.125 4.75 28.125H23.5C25.5711 28.125 27.25 26.4461 27.25 24.375V22.5" stroke="#888888" stroke-width="2"/>
</svg>
